<svg xmlns="http://www.w3.org/2000/svg" xmlns:xlink="http://www.w3.org/1999/xlink" viewBox="0,0,256,256" width="48px" height="48px" fill-rule="nonzero"><defs><linearGradient x1="13.999" y1="6.677" x2="34.001" y2="41.323" gradientUnits="userSpaceOnUse" id="color-1"><stop offset="0" stop-color="#f6b209"></stop><stop offset="1" stop-color="#f6b209"></stop></linearGradient></defs><g fill="none" fill-rule="nonzero" stroke="none" stroke-width="1" stroke-linecap="butt" stroke-linejoin="miter" stroke-miterlimit="10" stroke-dasharray="" stroke-dashoffset="0" font-family="none" font-weight="none" font-size="none" text-anchor="none" style="mix-blend-mode: normal"><g transform="scale(5.33333,5.33333)"><path d="M44,24c0,11.044 -8.956,20 -20,20c-11.044,0 -20,-8.956 -20,-20c0,-11.044 8.956,-20 20,-20c11.044,0 20,8.956 20,20z" fill="url(#color-1)"></path><path d="M27,10h-1c-1.103,0 -2,0.897 -2,2c0,-1.103 -0.897,-2 -2,-2h-1c-1.103,0 -2,0.897 -2,2v1h-1c-1.103,0 -2,0.897 -2,2v18c0,1.103 0.897,2 2,2h1v1c0,1.103 0.897,2 2,2h1c1.103,0 2,-0.897 2,-2v-1v1c0,1.103 0.897,2 2,2h1c1.103,0 2,-0.897 2,-2v-1.391c1.116,-0.289 2.056,-0.74 2.802,-1.344c1.458,-1.182 2.198,-2.913 2.198,-5.144c0,-1.341 -0.366,-2.504 -1.086,-3.457c-0.315,-0.421 -0.684,-0.782 -1.104,-1.081c0.309,-0.282 0.583,-0.601 0.821,-0.955c0.608,-0.914 0.915,-1.972 0.915,-3.147c0,-2.119 -0.763,-3.764 -2.269,-4.887c-0.626,-0.467 -1.376,-0.827 -2.277,-1.09v-1.504c0,-1.103 -0.897,-2 -2,-2zM22,18h3.199c1.178,0 1.678,0.247 1.871,0.394c0.259,0.197 0.391,0.588 0.391,1.161c0,0.527 0,1.409 -2.115,1.445h-3.346v-3zM22,26h4c1.322,0.019 2,0.824 2,2.391c0,1.591 -2.068,1.609 -2.156,1.609h-3.844v-4z" fill="#000000" opacity="0.05"></path><path d="M27,10.5h-1c-0.827,0 -1.5,0.673 -1.5,1.5v1.5h-1v-1.5c0,-0.827 -0.673,-1.5 -1.5,-1.5h-1c-0.827,0 -1.5,0.673 -1.5,1.5v1.5h-1.5c-0.827,0 -1.5,0.673 -1.5,1.5v18c0,0.827 0.673,1.5 1.5,1.5h1.5v1.5c0,0.827 0.673,1.5 1.5,1.5h1c0.827,0 1.5,-0.673 1.5,-1.5v-1.5h1v1.5c0,0.827 0.673,1.5 1.5,1.5h1c0.827,0 1.5,-0.673 1.5,-1.5v-1.786c1.213,-0.264 2.216,-0.713 2.987,-1.338c1.336,-1.083 2.013,-2.683 2.013,-4.755c0,-1.23 -0.331,-2.291 -0.985,-3.156c-0.422,-0.564 -0.952,-1.008 -1.58,-1.329c0.509,-0.345 0.938,-0.775 1.281,-1.287c0.552,-0.829 0.831,-1.794 0.831,-2.868c0,-1.953 -0.696,-3.462 -2.068,-4.487c-0.657,-0.491 -1.471,-0.855 -2.478,-1.109v-1.885c-0.001,-0.827 -0.674,-1.5 -1.501,-1.5zM21.5,17.5h3.699c1.01,0 1.742,0.167 2.174,0.496c0.395,0.301 0.588,0.811 0.588,1.559c0,0.885 -0.296,1.906 -2.606,1.945h-3.855v-4zM21.5,25.5h4.5c1.61,0.023 2.5,1.05 2.5,2.891c0,2.085 -2.548,2.109 -2.656,2.109h-4.344v-5z" fill="#000000" opacity="0.07"></path><path d="M21,11h1c0.552,0 1,0.448 1,1v3c0,0.552 -0.448,1 -1,1h-1c-0.552,0 -1,-0.448 -1,-1v-3c0,-0.552 0.448,-1 1,-1zM26,11h1c0.552,0 1,0.448 1,1v3c0,0.552 -0.448,1 -1,1h-1c-0.552,0 -1,-0.448 -1,-1v-3c0,-0.552 0.448,-1 1,-1zM21,32h1c0.552,0 1,0.448 1,1v3c0,0.552 -0.448,1 -1,1h-1c-0.552,0 -1,-0.448 -1,-1v-3c0,-0.552 0.448,-1 1,-1zM26,32h1c0.552,0 1,0.448 1,1v3c0,0.552 -0.448,1 -1,1h-1c-0.552,0 -1,-0.448 -1,-1v-3c0,-0.552 0.448,-1 1,-1zM17,33v-18c0,-0.552 0.448,-1 1,-1h7.199c2.41,0 4.234,0.465 5.48,1.395c1.246,0.93 1.867,2.293 1.867,4.086c0,0.98 -0.25,1.844 -0.746,2.59c-0.5,0.746 -1.195,1.293 -2.086,1.641c1.016,0.258 1.816,0.773 2.402,1.555c0.587,0.776 0.884,1.725 0.884,2.854c0,1.922 -0.609,3.379 -1.828,4.367c-1.219,0.988 -2.953,1.492 -5.207,1.512h-7.965c-0.552,0 -1,-0.448 -1,-1zM21,22h4.363c2.063,-0.035 3.098,-0.824 3.098,-2.445c0,-0.906 -0.262,-1.559 -0.785,-1.957c-0.523,-0.398 -1.348,-0.598 -2.477,-0.598h-4.199zM21,25v6h4.844c0.961,0 3.156,-0.469 3.156,-2.609c0,-2.14 -1.117,-3.364 -3,-3.391z" fill="#ffffff"></path></g></g></svg>